<svg xmlns="http://www.w3.org/2000/svg" viewBox="0 0 100 100">
  <rect width="100" height="100" rx="18" fill="#f97316"/>
  <rect x="14" y="28" width="72" height="58" rx="8" fill="white"/>
  <rect x="14" y="28" width="72" height="22" rx="8" fill="#ea580c"/>
  <rect x="14" y="42" width="72" height="8" fill="#ea580c"/>
  <rect x="30" y="18" width="10" height="16" rx="5" fill="white"/>
  <rect x="60" y="18" width="10" height="16" rx="5" fill="white"/>
  <rect x="22" y="58" width="10" height="10" rx="3" fill="#fed7aa"/>
  <rect x="37" y="58" width="10" height="10" rx="3" fill="#fed7aa"/>
  <rect x="52" y="58" width="10" height="10" rx="3" fill="#f97316"/>
  <rect x="67" y="58" width="10" height="10" rx="3" fill="#fed7aa"/>
  <rect x="22" y="73" width="10" height="10" rx="3" fill="#fed7aa"/>
  <rect x="37" y="73" width="10" height="10" rx="3" fill="#fed7aa"/>
  <rect x="52" y="73" width="10" height="10" rx="3" fill="#fed7aa"/>
</svg>